<svg xmlns="http://www.w3.org/2000/svg" xmlns:xlink="http://www.w3.org/1999/xlink" contentStyleType="text/css" height="1750px" preserveAspectRatio="none" style="width:1697px;height:1750px;background:#FEFEFE;" version="1.1" viewBox="0 0 1697 1750" width="1697px" zoomAndPan="magnify"><title>Pool.UpdatePool() &#8212; &#24103;&#26356;&#26032;&#19982;&#21452;&#21015;&#34920;&#31649;&#29702;</title><defs/><g><rect fill="#FEFEFE" height="1750" style="stroke:none;stroke-width:1;" width="1697" x="0" y="0"/><text fill="#000000" font-family="sans-serif" font-size="14" font-weight="bold" lengthAdjust="spacing" textLength="276.601" x="706.6401" y="29.9659">Pool.UpdatePool() &#8212; &#24103;&#26356;&#26032;&#19982;&#21452;&#21015;&#34920;&#31649;&#29702;</text><rect fill="#FFFFFF" height="1551.9525" style="stroke:#181818;stroke-width:1;" width="10" x="137.2878" y="131.9098"/><rect fill="#FFFFFF" height="232.3541" style="stroke:#181818;stroke-width:1;" width="10" x="846.3976" y="1094.7782"/><rect fill="none" height="288.7662" rx="3" ry="3" style="stroke:#000000;stroke-width:1.5;" width="745.7388" x="10" y="192.6158"/><rect fill="none" height="187.9421" rx="3" ry="3" style="stroke:#000000;stroke-width:1.5;" width="725.7388" x="20" y="286.4398"/><rect fill="none" height="159.5301" rx="3" ry="3" style="stroke:#000000;stroke-width:1.5;" width="947.0564" x="20" y="541.088"/><rect fill="none" height="916.5382" rx="3" ry="3" style="stroke:#000000;stroke-width:1.5;" width="1670.8812" x="10" y="760.3241"/><rect fill="none" height="815.7141" rx="3" ry="3" style="stroke:#000000;stroke-width:1.5;" width="1650.8812" x="20" y="854.1481"/><line style="stroke:#181818;stroke-width:0.5;stroke-dasharray:5.0,5.0;" x1="142" x2="142" y1="98.2038" y2="1693.8623"/><line style="stroke:#181818;stroke-width:0.5;stroke-dasharray:5.0,5.0;" x1="379.5756" x2="379.5756" y1="98.2038" y2="1693.8623"/><line style="stroke:#181818;stroke-width:0.5;stroke-dasharray:5.0,5.0;" x1="620.1572" x2="620.1572" y1="98.2038" y2="1693.8623"/><line style="stroke:#181818;stroke-width:0.5;stroke-dasharray:5.0,5.0;" x1="850.7388" x2="850.7388" y1="98.2038" y2="1693.8623"/><line style="stroke:#181818;stroke-width:0.5;stroke-dasharray:5.0,5.0;" x1="1080.0564" x2="1080.0564" y1="98.2038" y2="1693.8623"/><line style="stroke:#181818;stroke-width:0.5;stroke-dasharray:5.0,5.0;" x1="1313.39" x2="1313.39" y1="98.2038" y2="1693.8623"/><line style="stroke:#181818;stroke-width:0.5;stroke-dasharray:5.0,5.0;" x1="1546.8056" x2="1546.8056" y1="98.2038" y2="1693.8623"/><rect fill="#E2E2F0" height="52.1358" rx="3" ry="3" style="stroke:#181818;stroke-width:0.5;" width="114.5756" x="85" y="45.0679"/><text fill="#000000" font-family="sans-serif" font-size="14" lengthAdjust="spacing" textLength="100.5756" x="92" y="67.0339">ClassicLinePool</text><text fill="#000000" font-family="sans-serif" font-size="14" lengthAdjust="spacing" textLength="61.2638" x="111.6559" y="86.1018">ILinePool</text><rect fill="#E2E2F0" height="52.1358" rx="3" ry="3" style="stroke:#181818;stroke-width:0.5;" width="114.5756" x="85" y="1692.8623"/><text fill="#000000" font-family="sans-serif" font-size="14" lengthAdjust="spacing" textLength="100.5756" x="92" y="1714.8282">ClassicLinePool</text><text fill="#000000" font-family="sans-serif" font-size="14" lengthAdjust="spacing" textLength="61.2638" x="111.6559" y="1733.8961">ILinePool</text><rect fill="#E2E2F0" height="52.1358" rx="3" ry="3" style="stroke:#181818;stroke-width:0.5;" width="120.5816" x="319.5756" y="45.0679"/><text fill="#000000" font-family="sans-serif" font-size="14" lengthAdjust="spacing" textLength="96.9636" x="331.3846" y="67.0339">pendingNodes</text><text fill="#000000" font-family="sans-serif" font-size="14" lengthAdjust="spacing" textLength="106.5816" x="326.5756" y="86.1018">List&lt;ILineNode&gt;</text><rect fill="#E2E2F0" height="52.1358" rx="3" ry="3" style="stroke:#181818;stroke-width:0.5;" width="120.5816" x="319.5756" y="1692.8623"/><text fill="#000000" font-family="sans-serif" font-size="14" lengthAdjust="spacing" textLength="96.9636" x="331.3846" y="1714.8282">pendingNodes</text><text fill="#000000" font-family="sans-serif" font-size="14" lengthAdjust="spacing" textLength="106.5816" x="326.5756" y="1733.8961">List&lt;ILineNode&gt;</text><rect fill="#E2E2F0" height="52.1358" rx="3" ry="3" style="stroke:#181818;stroke-width:0.5;" width="120.5816" x="560.1572" y="45.0679"/><text fill="#000000" font-family="sans-serif" font-size="14" lengthAdjust="spacing" textLength="66.0937" x="587.4011" y="67.0339">lineNodes</text><text fill="#000000" font-family="sans-serif" font-size="14" lengthAdjust="spacing" textLength="106.5816" x="567.1572" y="86.1018">List&lt;ILineNode&gt;</text><rect fill="#E2E2F0" height="52.1358" rx="3" ry="3" style="stroke:#181818;stroke-width:0.5;" width="120.5816" x="560.1572" y="1692.8623"/><text fill="#000000" font-family="sans-serif" font-size="14" lengthAdjust="spacing" textLength="66.0937" x="587.4011" y="1714.8282">lineNodes</text><text fill="#000000" font-family="sans-serif" font-size="14" lengthAdjust="spacing" textLength="106.5816" x="567.1572" y="1733.8961">List&lt;ILineNode&gt;</text><rect fill="#E2E2F0" height="52.1358" rx="3" ry="3" style="stroke:#181818;stroke-width:0.5;" width="101.3177" x="800.7388" y="45.0679"/><text fill="#000000" font-family="sans-serif" font-size="14" lengthAdjust="spacing" textLength="84.1537" x="809.3207" y="67.0339">currentNode</text><text fill="#000000" font-family="sans-serif" font-size="14" lengthAdjust="spacing" textLength="87.3177" x="807.7388" y="86.1018">(lineNodes[i])</text><rect fill="#E2E2F0" height="52.1358" rx="3" ry="3" style="stroke:#181818;stroke-width:0.5;" width="101.3177" x="800.7388" y="1692.8623"/><text fill="#000000" font-family="sans-serif" font-size="14" lengthAdjust="spacing" textLength="84.1537" x="809.3207" y="1714.8282">currentNode</text><text fill="#000000" font-family="sans-serif" font-size="14" lengthAdjust="spacing" textLength="87.3177" x="807.7388" y="1733.8961">(lineNodes[i])</text><rect fill="#E2E2F0" height="52.1358" rx="3" ry="3" style="stroke:#181818;stroke-width:0.5;" width="117.3336" x="1022.0564" y="45.0679"/><text fill="#000000" font-family="sans-serif" font-size="14" lengthAdjust="spacing" textLength="64.6237" x="1048.4113" y="67.0339">nextNode</text><text fill="#000000" font-family="sans-serif" font-size="14" lengthAdjust="spacing" textLength="103.3336" x="1029.0564" y="86.1018">(lineNodes[i+1])</text><rect fill="#E2E2F0" height="52.1358" rx="3" ry="3" style="stroke:#181818;stroke-width:0.5;" width="117.3336" x="1022.0564" y="1692.8623"/><text fill="#000000" font-family="sans-serif" font-size="14" lengthAdjust="spacing" textLength="64.6237" x="1048.4113" y="1714.8282">nextNode</text><text fill="#000000" font-family="sans-serif" font-size="14" lengthAdjust="spacing" textLength="103.3336" x="1029.0564" y="1733.8961">(lineNodes[i+1])</text><rect fill="#E2E2F0" height="52.1358" rx="3" ry="3" style="stroke:#181818;stroke-width:0.5;" width="108.4156" x="1259.39" y="45.0679"/><text fill="#000000" font-family="sans-serif" font-size="14" lengthAdjust="spacing" textLength="94.4156" x="1266.39" y="67.0339">ClassicLineTail</text><text fill="#000000" font-family="sans-serif" font-size="14" lengthAdjust="spacing" textLength="55.1038" x="1286.0459" y="86.1018">ILineTail</text><rect fill="#E2E2F0" height="52.1358" rx="3" ry="3" style="stroke:#181818;stroke-width:0.5;" width="108.4156" x="1259.39" y="1692.8623"/><text fill="#000000" font-family="sans-serif" font-size="14" lengthAdjust="spacing" textLength="94.4156" x="1266.39" y="1714.8282">ClassicLineTail</text><text fill="#000000" font-family="sans-serif" font-size="14" lengthAdjust="spacing" textLength="55.1038" x="1286.0459" y="1733.8961">ILineTail</text><rect fill="#E2E2F0" height="52.1358" rx="3" ry="3" style="stroke:#181818;stroke-width:0.5;" width="118.0756" x="1487.8056" y="45.0679"/><text fill="#000000" font-family="sans-serif" font-size="14" lengthAdjust="spacing" textLength="104.0756" x="1494.8056" y="67.0339">ClassicDirection</text><text fill="#000000" font-family="sans-serif" font-size="14" lengthAdjust="spacing" textLength="64.7637" x="1514.4615" y="86.1018">IDirection</text><rect fill="#E2E2F0" height="52.1358" rx="3" ry="3" style="stroke:#181818;stroke-width:0.5;" width="118.0756" x="1487.8056" y="1692.8623"/><text fill="#000000" font-family="sans-serif" font-size="14" lengthAdjust="spacing" textLength="104.0756" x="1494.8056" y="1714.8282">ClassicDirection</text><text fill="#000000" font-family="sans-serif" font-size="14" lengthAdjust="spacing" textLength="64.7637" x="1514.4615" y="1733.8961">IDirection</text><rect fill="#FFFFFF" height="1551.9525" style="stroke:#181818;stroke-width:1;" width="10" x="137.2878" y="131.9098"/><rect fill="#FFFFFF" height="232.3541" style="stroke:#181818;stroke-width:1;" width="10" x="846.3976" y="1094.7782"/><polygon fill="#181818" points="125.2878,127.9098,135.2878,131.9098,125.2878,135.9098,129.2878,131.9098" style="stroke:#181818;stroke-width:1;"/><line style="stroke:#181818;stroke-width:2;" x1="0" x2="131.2878" y1="131.9098" y2="131.9098"/><text fill="#000000" font-family="sans-serif" font-size="13" lengthAdjust="spacing" textLength="107.0941" x="7" y="126.1008">UpdatePool(time)</text><rect fill="#EEEEEE" height="3" rx="3" ry="3" style="stroke:#EEEEEE;stroke-width:1;" width="1690.8812" x="0" y="161.7628"/><line style="stroke:#000000;stroke-width:1;" x1="0" x2="1690.8812" y1="161.7628" y2="161.7628"/><line style="stroke:#000000;stroke-width:1;" x1="0" x2="1690.8812" y1="164.7628" y2="164.7628"/><rect fill="#EEEEEE" height="25.706" rx="3" ry="3" style="stroke:#000000;stroke-width:2;" width="345.4078" x="672.7367" y="149.9098"/><text fill="#000000" font-family="sans-serif" font-size="13" font-weight="bold" lengthAdjust="spacing" textLength="328.0278" x="678.7367" y="167.8068">ProcessPendingNodes: pendingNodes &#8594; lineNodes</text><path d="M13,192.6158 L72.459,192.6158 L72.459,202.3218 L62.459,212.3218 L10,212.3218 L10,195.6158 A3,3 0 0 1 13,192.6158 " fill="#EEEEEE" style="stroke:#000000;stroke-width:1.5;"/><rect fill="none" height="288.7662" rx="3" ry="3" style="stroke:#000000;stroke-width:1.5;" width="745.7388" x="10" y="192.6158"/><text fill="#000000" font-family="sans-serif" font-size="13" font-weight="bold" lengthAdjust="spacing" textLength="17.459" x="25" y="207.5128">alt</text><a href="hasPendingNodes" target="_top" title="hasPendingNodes" xlink:actuate="onRequest" xlink:href="hasPendingNodes" xlink:show="new" xlink:title="hasPendingNodes" xlink:type="simple"><text fill="#0000FF" font-family="sans-serif" font-size="11" font-weight="bold" lengthAdjust="spacing" text-decoration="underline" textLength="99.1643" x="87.459" y="206.3747">hasPendingNodes</text></a><polygon fill="#181818" points="367.8664,267.4398,377.8664,271.4398,367.8664,275.4398,371.8664,271.4398" style="stroke:#181818;stroke-width:1;"/><line style="stroke:#181818;stroke-width:2;" x1="147.2878" x2="373.8664" y1="271.4398" y2="271.4398"/><text fill="#000000" font-family="sans-serif" font-size="13" lengthAdjust="spacing" textLength="55.5361" x="154.2878" y="230.2188">Sort((a,b)</text><text fill="#000000" font-family="sans-serif" font-size="13" lengthAdjust="spacing" textLength="3.38" x="209.8239" y="230.2188">&#160;</text><text fill="#000000" font-family="sans-serif" font-size="13" lengthAdjust="spacing" textLength="14.872" x="213.2039" y="230.2188">=&gt;</text><text fill="#000000" font-family="sans-serif" font-size="13" lengthAdjust="spacing" textLength="76.0111" x="154.2878" y="247.9248">a.BeginTime</text><text fill="#000000" font-family="sans-serif" font-size="13" lengthAdjust="spacing" textLength="3.38" x="230.2989" y="247.9248">&#160;</text><text fill="#000000" font-family="sans-serif" font-size="13" lengthAdjust="spacing" textLength="4.186" x="233.6789" y="247.9248">-</text><text fill="#000000" font-family="sans-serif" font-size="13" lengthAdjust="spacing" textLength="80.6131" x="154.2878" y="265.6308">b.BeginTime)</text><path d="M23,286.4398 L93.288,286.4398 L93.288,296.1459 L83.288,306.1459 L20,306.1459 L20,289.4398 A3,3 0 0 1 23,286.4398 " fill="#EEEEEE" style="stroke:#000000;stroke-width:1.5;"/><rect fill="none" height="187.9421" rx="3" ry="3" style="stroke:#000000;stroke-width:1.5;" width="725.7388" x="20" y="286.4398"/><text fill="#000000" font-family="sans-serif" font-size="13" font-weight="bold" lengthAdjust="spacing" textLength="28.288" x="35" y="301.3369">loop</text><text fill="#000000" font-family="sans-serif" font-size="11" font-weight="bold" lengthAdjust="spacing" textLength="109.4822" x="108.288" y="300.1988">[BeginTime &lt;= time]</text><polygon fill="#181818" points="367.8664,325.8519,377.8664,329.8519,367.8664,333.8519,371.8664,329.8519" style="stroke:#181818;stroke-width:1;"/><line style="stroke:#181818;stroke-width:2;" x1="147.2878" x2="373.8664" y1="329.8519" y2="329.8519"/><text fill="#000000" font-family="sans-serif" font-size="13" lengthAdjust="spacing" textLength="26" x="154.2878" y="324.0429">&#21462;&#20986;</text><text fill="#000000" font-family="sans-serif" font-size="13" lengthAdjust="spacing" textLength="3.38" x="180.2878" y="324.0429">&#160;</text><text fill="#000000" font-family="sans-serif" font-size="13" lengthAdjust="spacing" textLength="106.0281" x="183.6678" y="324.0429">pendingNodes[0]</text><polygon fill="#181818" points="608.448,375.2639,618.448,379.2639,608.448,383.2639,612.448,379.2639" style="stroke:#181818;stroke-width:1;"/><line style="stroke:#181818;stroke-width:2;" x1="147.2878" x2="614.448" y1="379.2639" y2="379.2639"/><text fill="#000000" font-family="sans-serif" font-size="13" lengthAdjust="spacing" textLength="80.5351" x="154.2878" y="355.7489">BinarySearch</text><text fill="#000000" font-family="sans-serif" font-size="13" lengthAdjust="spacing" textLength="3.38" x="234.8229" y="355.7489">&#160;</text><text fill="#000000" font-family="sans-serif" font-size="13" lengthAdjust="spacing" textLength="10.8926" x="238.2029" y="355.7489">&#8594;</text><text fill="#000000" font-family="sans-serif" font-size="13" lengthAdjust="spacing" textLength="3.38" x="249.0955" y="355.7489">&#160;</text><text fill="#000000" font-family="sans-serif" font-size="13" lengthAdjust="spacing" textLength="13" x="252.4755" y="355.7489">&#25353;</text><text fill="#000000" font-family="sans-serif" font-size="13" lengthAdjust="spacing" textLength="65.2341" x="154.2878" y="373.4549">BeginTime</text><text fill="#000000" font-family="sans-serif" font-size="13" lengthAdjust="spacing" textLength="3.38" x="219.5219" y="373.4549">&#160;</text><text fill="#000000" font-family="sans-serif" font-size="13" lengthAdjust="spacing" textLength="52" x="222.9019" y="373.4549">&#26377;&#24207;&#25554;&#20837;</text><polygon fill="#181818" points="367.8664,406.9699,377.8664,410.9699,367.8664,414.9699,371.8664,410.9699" style="stroke:#181818;stroke-width:1;"/><line style="stroke:#181818;stroke-width:2;" x1="147.2878" x2="373.8664" y1="410.9699" y2="410.9699"/><text fill="#000000" font-family="sans-serif" font-size="13" lengthAdjust="spacing" textLength="77.6101" x="154.2878" y="405.1609">RemoveAt(0)</text><path d="M152,426.9699 L152,465.9699 A3,3 0 0 0 155,468.9699 L383,468.9699 A3,3 0 0 0 386,465.9699 L386,433.9699 L376,423.9699 L155,423.9699 A3,3 0 0 0 152,426.9699 " fill="#FEFFDD" style="stroke:#181818;stroke-width:0.5;"/><path d="M376,423.9699 L376,432.4699 A1.5,1.5 0 0 0 377.5,433.9699 L386,433.9699 L376,423.9699 " fill="#FEFFDD" style="stroke:#181818;stroke-width:0.5;"/><text fill="#000000" font-family="sans-serif" font-size="13" lengthAdjust="spacing" textLength="213.0182" x="158" y="442.8669">&#33509; currentNodeIndex &gt; insertIndex</text><text fill="#000000" font-family="sans-serif" font-size="13" lengthAdjust="spacing" textLength="169" x="158" y="460.573">&#25351;&#38024;&#22238;&#36864;&#21040;&#31532;&#19968;&#20010;&#26410;&#26356;&#26032;&#33410;&#28857;</text><rect fill="#EEEEEE" height="3" rx="3" ry="3" style="stroke:#EEEEEE;stroke-width:1;" width="1690.8812" x="0" y="510.235"/><line style="stroke:#000000;stroke-width:1;" x1="0" x2="1690.8812" y1="510.235" y2="510.235"/><line style="stroke:#000000;stroke-width:1;" x1="0" x2="1690.8812" y1="513.235" y2="513.235"/><rect fill="#EEEEEE" height="25.706" rx="3" ry="3" style="stroke:#000000;stroke-width:2;" width="282.1042" x="704.3885" y="498.382"/><text fill="#000000" font-family="sans-serif" font-size="13" font-weight="bold" lengthAdjust="spacing" textLength="264.7242" x="710.3885" y="516.279">&#22238;&#25910;&#36229;&#21069;&#33410;&#28857;: lineNodes &#8594; pendingNodes</text><path d="M23,541.088 L93.288,541.088 L93.288,550.794 L83.288,560.794 L20,560.794 L20,544.088 A3,3 0 0 1 23,541.088 " fill="#EEEEEE" style="stroke:#000000;stroke-width:1.5;"/><rect fill="none" height="159.5301" rx="3" ry="3" style="stroke:#000000;stroke-width:1.5;" width="947.0564" x="20" y="541.088"/><text fill="#000000" font-family="sans-serif" font-size="13" font-weight="bold" lengthAdjust="spacing" textLength="28.288" x="35" y="555.985">loop</text><a href="currentNode.BeginTime" target="_top" title="currentNode.BeginTime" xlink:actuate="onRequest" xlink:href="currentNode.BeginTime" xlink:show="new" xlink:title="currentNode.BeginTime" xlink:type="simple"><text fill="#0000FF" font-family="sans-serif" font-size="11" font-weight="bold" lengthAdjust="spacing" text-decoration="underline" textLength="34.5838" x="108.288" y="554.8469">&gt; time</text></a><polygon fill="#181818" points="839.3976,580.5,849.3976,584.5,839.3976,588.5,843.3976,584.5" style="stroke:#181818;stroke-width:1;"/><line style="stroke:#181818;stroke-width:2;" x1="147.2878" x2="845.3976" y1="584.5" y2="584.5"/><text fill="#000000" font-family="sans-serif" font-size="13" lengthAdjust="spacing" textLength="92.1701" x="154.2878" y="578.691">SetActive(false)</text><polygon fill="#181818" points="608.448,612.206,618.448,616.206,608.448,620.206,612.448,616.206" style="stroke:#181818;stroke-width:1;"/><line style="stroke:#181818;stroke-width:2;" x1="147.2878" x2="614.448" y1="616.206" y2="616.206"/><text fill="#000000" font-family="sans-serif" font-size="13" lengthAdjust="spacing" textLength="182.9622" x="154.2878" y="610.397">RemoveAt(currentNodeIndex)</text><polygon fill="#181818" points="367.8664,643.912,377.8664,647.912,367.8664,651.912,371.8664,647.912" style="stroke:#181818;stroke-width:1;"/><line style="stroke:#181818;stroke-width:2;" x1="147.2878" x2="373.8664" y1="647.912" y2="647.912"/><text fill="#000000" font-family="sans-serif" font-size="13" lengthAdjust="spacing" textLength="110.2401" x="154.2878" y="642.103">Add(currentNode)</text><line style="stroke:#181818;stroke-width:2;" x1="147.2878" x2="189.2878" y1="679.6181" y2="679.6181"/><line style="stroke:#181818;stroke-width:2;" x1="189.2878" x2="189.2878" y1="679.6181" y2="692.6181"/><line style="stroke:#181818;stroke-width:2;" x1="148.2878" x2="189.2878" y1="692.6181" y2="692.6181"/><polygon fill="#181818" points="158.2878,688.6181,148.2878,692.6181,158.2878,696.6181,154.2878,692.6181" style="stroke:#181818;stroke-width:1;"/><text fill="#000000" font-family="sans-serif" font-size="13" lengthAdjust="spacing" textLength="121.1601" x="154.2878" y="673.8091">currentNodeIndex--</text><rect fill="#EEEEEE" height="3" rx="3" ry="3" style="stroke:#EEEEEE;stroke-width:1;" width="1690.8812" x="0" y="729.4711"/><line style="stroke:#000000;stroke-width:1;" x1="0" x2="1690.8812" y1="729.4711" y2="729.4711"/><line style="stroke:#000000;stroke-width:1;" x1="0" x2="1690.8812" y1="732.4711" y2="732.4711"/><rect fill="#EEEEEE" height="25.706" rx="3" ry="3" style="stroke:#000000;stroke-width:2;" width="306.3994" x="692.2409" y="717.6181"/><text fill="#000000" font-family="sans-serif" font-size="13" font-weight="bold" lengthAdjust="spacing" textLength="289.0194" x="698.2409" y="735.5151">UpdatePoolSequence &#20027;&#24490;&#29615; (&#36941;&#21382; lineNodes)</text><path d="M13,760.3241 L83.288,760.3241 L83.288,770.0301 L73.288,780.0301 L10,780.0301 L10,763.3241 A3,3 0 0 1 13,760.3241 " fill="#EEEEEE" style="stroke:#000000;stroke-width:1.5;"/><rect fill="none" height="916.5382" rx="3" ry="3" style="stroke:#000000;stroke-width:1.5;" width="1670.8812" x="10" y="760.3241"/><text fill="#000000" font-family="sans-serif" font-size="13" font-weight="bold" lengthAdjust="spacing" textLength="28.288" x="25" y="775.2211">loop</text><text fill="#000000" font-family="sans-serif" font-size="11" font-weight="bold" lengthAdjust="spacing" textLength="212.5074" x="98.288" y="774.083">[currentNodeIndex &lt; lineNodes.Count]</text><polygon fill="#181818" points="608.448,835.1481,618.448,839.1481,608.448,843.1481,612.448,839.1481" style="stroke:#181818;stroke-width:1;"/><line style="stroke:#181818;stroke-width:2;" x1="147.2878" x2="614.448" y1="839.1481" y2="839.1481"/><text fill="#000000" font-family="sans-serif" font-size="13" lengthAdjust="spacing" textLength="26" x="154.2878" y="797.9271">&#35835;&#21462;</text><text fill="#000000" font-family="sans-serif" font-size="13" lengthAdjust="spacing" textLength="182.7151" x="154.2878" y="815.6331">lineNodes[currentNodeIndex]</text><text fill="#000000" font-family="sans-serif" font-size="13" lengthAdjust="spacing" textLength="10.8926" x="154.2878" y="833.3391">&#8594;</text><text fill="#000000" font-family="sans-serif" font-size="13" lengthAdjust="spacing" textLength="3.38" x="165.1804" y="833.3391">&#160;</text><text fill="#000000" font-family="sans-serif" font-size="13" lengthAdjust="spacing" textLength="78.1431" x="168.5604" y="833.3391">currentNode</text><path d="M23,854.1481 L82.459,854.1481 L82.459,863.8542 L72.459,873.8542 L20,873.8542 L20,857.1481 A3,3 0 0 1 23,854.1481 " fill="#EEEEEE" style="stroke:#000000;stroke-width:1.5;"/><rect fill="none" height="815.7141" rx="3" ry="3" style="stroke:#000000;stroke-width:1.5;" width="1650.8812" x="20" y="854.1481"/><text fill="#000000" font-family="sans-serif" font-size="13" font-weight="bold" lengthAdjust="spacing" textLength="17.459" x="35" y="869.0452">alt</text><text fill="#000000" font-family="sans-serif" font-size="11" font-weight="bold" lengthAdjust="spacing" textLength="238.7973" x="97.459" y="867.9071">[[a] HasLimitedLength &amp;&amp; EndTime &lt;= time]</text><line style="stroke:#181818;stroke-width:2;" x1="147.2878" x2="189.2878" y1="915.2662" y2="915.2662"/><line style="stroke:#181818;stroke-width:2;" x1="189.2878" x2="189.2878" y1="915.2662" y2="928.2662"/><line style="stroke:#181818;stroke-width:2;" x1="148.2878" x2="189.2878" y1="928.2662" y2="928.2662"/><polygon fill="#181818" points="158.2878,924.2662,148.2878,928.2662,158.2878,932.2662,154.2878,928.2662" style="stroke:#181818;stroke-width:1;"/><text fill="#000000" font-family="sans-serif" font-size="13" lengthAdjust="spacing" textLength="174.1612" x="154.2878" y="891.7512">ContinueNode(currentNode,</text><text fill="#000000" font-family="sans-serif" font-size="13" lengthAdjust="spacing" textLength="37.492" x="154.2878" y="909.4572">index)</text><path d="M152,944.2662 L152,1001.2662 A3,3 0 0 0 155,1004.2662 L455,1004.2662 A3,3 0 0 0 458,1001.2662 L458,951.2662 L448,941.2662 L155,941.2662 A3,3 0 0 0 152,944.2662 " fill="#FEFFDD" style="stroke:#181818;stroke-width:0.5;"/><path d="M448,941.2662 L448,949.7662 A1.5,1.5 0 0 0 449.5,951.2662 L458,951.2662 L448,941.2662 " fill="#FEFFDD" style="stroke:#181818;stroke-width:0.5;"/><text fill="#000000" font-family="sans-serif" font-size="13" lengthAdjust="spacing" textLength="277.5242" x="158" y="960.1632">AddNode(Continue, endTime) &#19981;&#36827;&#20837; pending</text><text fill="#000000" font-family="sans-serif" font-size="13" lengthAdjust="spacing" textLength="285.9208" x="158" y="977.8692">&#8594; RefreshNodeByFormer(&#26032;&#33410;&#28857;, currentNode)</text><text fill="#000000" font-family="sans-serif" font-size="13" lengthAdjust="spacing" textLength="260.9348" x="158" y="995.5752">&#8594; lineNodes.Insert(formerIndex+1, &#26032;&#33410;&#28857;)</text><line style="stroke:#181818;stroke-width:2;" x1="147.2878" x2="189.2878" y1="1033.0903" y2="1033.0903"/><line style="stroke:#181818;stroke-width:2;" x1="189.2878" x2="189.2878" y1="1033.0903" y2="1046.0903"/><line style="stroke:#181818;stroke-width:2;" x1="148.2878" x2="189.2878" y1="1046.0903" y2="1046.0903"/><polygon fill="#181818" points="158.2878,1042.0903,148.2878,1046.0903,158.2878,1050.0903,154.2878,1046.0903" style="stroke:#181818;stroke-width:1;"/><text fill="#000000" font-family="sans-serif" font-size="13" lengthAdjust="spacing" textLength="127.6601" x="154.2878" y="1027.2813">currentNodeIndex++</text><line style="stroke:#000000;stroke-width:1;stroke-dasharray:2.0,2.0;" x1="20" x2="1670.8812" y1="1055.0903" y2="1055.0903"/><text fill="#000000" font-family="sans-serif" font-size="11" font-weight="bold" lengthAdjust="spacing" textLength="155.96" x="25" y="1066.8492">[[b] &#24050;&#25269;&#36798;&#26411;&#23614; (i == Count-1)]</text><polygon fill="#181818" points="834.3976,1090.7782,844.3976,1094.7782,834.3976,1098.7782,838.3976,1094.7782" style="stroke:#181818;stroke-width:1;"/><line style="stroke:#181818;stroke-width:2;" x1="147.2878" x2="840.3976" y1="1094.7782" y2="1094.7782"/><text fill="#000000" font-family="sans-serif" font-size="13" lengthAdjust="spacing" textLength="129.4021" x="154.2878" y="1088.9692">UpdatePosition(time)</text><polygon fill="#181818" points="1301.5978,1140.1902,1311.5978,1144.1902,1301.5978,1148.1902,1305.5978,1144.1902" style="stroke:#181818;stroke-width:1;"/><line style="stroke:#181818;stroke-width:2;" x1="856.3976" x2="1307.5978" y1="1144.1902" y2="1144.1902"/><text fill="#000000" font-family="sans-serif" font-size="13" lengthAdjust="spacing" textLength="130.0911" x="863.3976" y="1120.6752">UpdateTail(beginPos,</text><text fill="#000000" font-family="sans-serif" font-size="13" lengthAdjust="spacing" textLength="64.2201" x="863.3976" y="1138.3812">deltaTime,</text><text fill="#000000" font-family="sans-serif" font-size="13" lengthAdjust="spacing" textLength="3.38" x="927.6176" y="1138.3812">&#160;</text><text fill="#000000" font-family="sans-serif" font-size="13" lengthAdjust="spacing" textLength="58.1361" x="930.9977" y="1138.3812">direction)</text><polygon fill="#181818" points="1534.8434,1189.6022,1544.8434,1193.6022,1534.8434,1197.6022,1538.8434,1193.6022" style="stroke:#181818;stroke-width:1;"/><line style="stroke:#181818;stroke-width:2;" x1="1313.5978" x2="1540.8434" y1="1193.6022" y2="1193.6022"/><text fill="#000000" font-family="sans-serif" font-size="13" lengthAdjust="spacing" textLength="161.5382" x="1320.5978" y="1170.0872">UpdatePosition(startPoint,</text><text fill="#000000" font-family="sans-serif" font-size="13" lengthAdjust="spacing" textLength="31.018" x="1320.5978" y="1187.7932">time,</text><text fill="#000000" font-family="sans-serif" font-size="13" lengthAdjust="spacing" textLength="3.38" x="1351.6158" y="1187.7932">&#160;</text><text fill="#000000" font-family="sans-serif" font-size="13" lengthAdjust="spacing" textLength="86.6061" x="1354.9958" y="1187.7932">tailTransform)</text><polygon fill="#181818" points="1324.5978,1239.0143,1314.5978,1243.0143,1324.5978,1247.0143,1320.5978,1243.0143" style="stroke:#181818;stroke-width:1;"/><line style="stroke:#181818;stroke-width:2;stroke-dasharray:2.0,2.0;" x1="1318.5978" x2="1545.8434" y1="1243.0143" y2="1243.0143"/><text fill="#000000" font-family="sans-serif" font-size="13" lengthAdjust="spacing" textLength="74.2561" x="1330.5978" y="1219.4992">headMotion</text><text fill="#000000" font-family="sans-serif" font-size="13" lengthAdjust="spacing" textLength="82.5501" x="1330.5978" y="1237.2053">(MotionState)</text><polygon fill="#181818" points="867.3976,1288.4263,857.3976,1292.4263,867.3976,1296.4263,863.3976,1292.4263" style="stroke:#181818;stroke-width:1;"/><line style="stroke:#181818;stroke-width:2;stroke-dasharray:2.0,2.0;" x1="861.3976" x2="1312.5978" y1="1292.4263" y2="1292.4263"/><text fill="#000000" font-family="sans-serif" font-size="13" lengthAdjust="spacing" textLength="74.2561" x="873.3976" y="1268.9113">headMotion</text><text fill="#000000" font-family="sans-serif" font-size="13" lengthAdjust="spacing" textLength="85.8" x="873.3976" y="1286.6173">(&#21472;&#21152;&#29289;&#29702;&#20301;&#31227;)</text><polygon fill="#181818" points="158.2878,1323.1323,148.2878,1327.1323,158.2878,1331.1323,154.2878,1327.1323" style="stroke:#181818;stroke-width:1;"/><line style="stroke:#181818;stroke-width:2;stroke-dasharray:2.0,2.0;" x1="152.2878" x2="850.3976" y1="1327.1323" y2="1327.1323"/><text fill="#000000" font-family="sans-serif" font-size="13" lengthAdjust="spacing" textLength="119.8211" x="164.2878" y="1321.3233">currentMotionState</text><path d="M861,1308.4263 L861,1329.4263 A3,3 0 0 0 864,1332.4263 L1009,1332.4263 A3,3 0 0 0 1012,1329.4263 L1012,1315.4263 L1002,1305.4263 L864,1305.4263 A3,3 0 0 0 861,1308.4263 " fill="#FEFFDD" style="stroke:#181818;stroke-width:0.5;"/><path d="M1002,1305.4263 L1002,1313.9263 A1.5,1.5 0 0 0 1003.5,1315.4263 L1012,1315.4263 L1002,1305.4263 " fill="#FEFFDD" style="stroke:#181818;stroke-width:0.5;"/><text fill="#000000" font-family="sans-serif" font-size="13" lengthAdjust="spacing" textLength="130.8841" x="867" y="1324.3233">return currentMotion</text><line style="stroke:#000000;stroke-width:1;stroke-dasharray:2.0,2.0;" x1="20" x2="1670.8812" y1="1339.1323" y2="1339.1323"/><text fill="#000000" font-family="sans-serif" font-size="11" font-weight="bold" lengthAdjust="spacing" textLength="254.3409" x="25" y="1350.8912">[[c] &#19979;&#19968;&#33410;&#28857;&#26102;&#38388;&#24050;&#21040; (next.BeginTime &lt;= time)]</text><polygon fill="#181818" points="608.448,1410.2323,618.448,1414.2323,608.448,1418.2323,612.448,1414.2323" style="stroke:#181818;stroke-width:1;"/><line style="stroke:#181818;stroke-width:2;" x1="147.2878" x2="614.448" y1="1414.2323" y2="1414.2323"/><text fill="#000000" font-family="sans-serif" font-size="13" lengthAdjust="spacing" textLength="26" x="154.2878" y="1373.0112">&#35835;&#21462;</text><text fill="#000000" font-family="sans-serif" font-size="13" lengthAdjust="spacing" textLength="197.5872" x="154.2878" y="1390.7172">lineNodes[currentNodeIndex+1]</text><text fill="#000000" font-family="sans-serif" font-size="13" lengthAdjust="spacing" textLength="10.8926" x="154.2878" y="1408.4233">&#8594;</text><text fill="#000000" font-family="sans-serif" font-size="13" lengthAdjust="spacing" textLength="3.38" x="165.1804" y="1408.4233">&#160;</text><text fill="#000000" font-family="sans-serif" font-size="13" lengthAdjust="spacing" textLength="60.008" x="168.5604" y="1408.4233">nextNode</text><polygon fill="#181818" points="1068.7232,1459.6443,1078.7232,1463.6443,1068.7232,1467.6443,1072.7232,1463.6443" style="stroke:#181818;stroke-width:1;"/><line style="stroke:#181818;stroke-width:2;" x1="147.2878" x2="1074.7232" y1="1463.6443" y2="1463.6443"/><text fill="#000000" font-family="sans-serif" font-size="13" lengthAdjust="spacing" textLength="207.2332" x="154.2878" y="1440.1293">RefreshNodeByFormer(nextNode,</text><text fill="#000000" font-family="sans-serif" font-size="13" lengthAdjust="spacing" textLength="82.0431" x="154.2878" y="1457.8353">currentNode)</text><path d="M1085,1436.0853 L1085,1457.0853 A3,3 0 0 0 1088,1460.0853 L1322,1460.0853 A3,3 0 0 0 1325,1457.0853 L1325,1443.0853 L1315,1433.0853 L1088,1433.0853 A3,3 0 0 0 1085,1436.0853 " fill="#FEFFDD" style="stroke:#181818;stroke-width:0.5;"/><path d="M1315,1433.0853 L1315,1441.5853 A1.5,1.5 0 0 0 1316.5,1443.0853 L1325,1443.0853 L1315,1433.0853 " fill="#FEFFDD" style="stroke:#181818;stroke-width:0.5;"/><text fill="#000000" font-family="sans-serif" font-size="13" lengthAdjust="spacing" textLength="219.1137" x="1091" y="1451.9823">formerNode &#8594; targetNode &#29366;&#24577;&#32487;&#25215;</text><line style="stroke:#181818;stroke-width:2;" x1="147.2878" x2="189.2878" y1="1495.3503" y2="1495.3503"/><line style="stroke:#181818;stroke-width:2;" x1="189.2878" x2="189.2878" y1="1495.3503" y2="1508.3503"/><line style="stroke:#181818;stroke-width:2;" x1="148.2878" x2="189.2878" y1="1508.3503" y2="1508.3503"/><polygon fill="#181818" points="158.2878,1504.3503,148.2878,1508.3503,158.2878,1512.3503,154.2878,1508.3503" style="stroke:#181818;stroke-width:1;"/><text fill="#000000" font-family="sans-serif" font-size="13" lengthAdjust="spacing" textLength="127.6601" x="154.2878" y="1489.5413">currentNodeIndex++</text><line style="stroke:#000000;stroke-width:1;stroke-dasharray:2.0,2.0;" x1="20" x2="1670.8812" y1="1517.3503" y2="1517.3503"/><text fill="#000000" font-family="sans-serif" font-size="11" font-weight="bold" lengthAdjust="spacing" textLength="226.6704" x="25" y="1529.1092">[[d] &#19979;&#19968;&#33410;&#28857;&#36229;&#21069; (next.BeginTime &gt; time)]</text><polygon fill="#181818" points="608.448,1570.7442,618.448,1574.7442,608.448,1578.7442,612.448,1574.7442" style="stroke:#181818;stroke-width:1;"/><line style="stroke:#181818;stroke-width:2;" x1="147.2878" x2="614.448" y1="1574.7442" y2="1574.7442"/><text fill="#000000" font-family="sans-serif" font-size="13" lengthAdjust="spacing" textLength="85.8391" x="154.2878" y="1551.2292">GetRange(i+1,</text><text fill="#000000" font-family="sans-serif" font-size="13" lengthAdjust="spacing" textLength="3.38" x="240.1269" y="1551.2292">&#160;</text><text fill="#000000" font-family="sans-serif" font-size="13" lengthAdjust="spacing" textLength="59.9041" x="243.5069" y="1551.2292">Count-1-i)</text><text fill="#000000" font-family="sans-serif" font-size="13" lengthAdjust="spacing" textLength="10.8926" x="154.2878" y="1568.9352">&#8594;</text><text fill="#000000" font-family="sans-serif" font-size="13" lengthAdjust="spacing" textLength="3.38" x="165.1804" y="1568.9352">&#160;</text><text fill="#000000" font-family="sans-serif" font-size="13" lengthAdjust="spacing" textLength="104" x="168.5604" y="1568.9352">&#21462;&#20986;&#21518;&#32493;&#20840;&#37096;&#33410;&#28857;</text><polygon fill="#181818" points="367.8664,1602.4502,377.8664,1606.4502,367.8664,1610.4502,371.8664,1606.4502" style="stroke:#181818;stroke-width:1;"/><line style="stroke:#181818;stroke-width:2;" x1="147.2878" x2="373.8664" y1="1606.4502" y2="1606.4502"/><text fill="#000000" font-family="sans-serif" font-size="13" lengthAdjust="spacing" textLength="135.8371" x="154.2878" y="1600.6412">AddRange(&#21462;&#20986;&#30340;&#33410;&#28857;)</text><polygon fill="#181818" points="608.448,1654.8623,618.448,1658.8623,608.448,1662.8623,612.448,1658.8623" style="stroke:#181818;stroke-width:1;"/><line style="stroke:#181818;stroke-width:2;" x1="147.2878" x2="614.448" y1="1658.8623" y2="1658.8623"/><text fill="#000000" font-family="sans-serif" font-size="13" lengthAdjust="spacing" textLength="113.7241" x="154.2878" y="1635.3473">RemoveRange(i+1,</text><text fill="#000000" font-family="sans-serif" font-size="13" lengthAdjust="spacing" textLength="59.9041" x="154.2878" y="1653.0533">Count-1-i)</text><path d="M625,1622.4502 L625,1661.4502 A3,3 0 0 0 628,1664.4502 L814,1664.4502 A3,3 0 0 0 817,1661.4502 L817,1629.4502 L807,1619.4502 L628,1619.4502 A3,3 0 0 0 625,1622.4502 " fill="#FEFFDD" style="stroke:#181818;stroke-width:0.5;"/><path d="M807,1619.4502 L807,1627.9502 A1.5,1.5 0 0 0 808.5,1629.4502 L817,1629.4502 L807,1619.4502 " fill="#FEFFDD" style="stroke:#181818;stroke-width:0.5;"/><text fill="#000000" font-family="sans-serif" font-size="13" lengthAdjust="spacing" textLength="171.1191" x="631" y="1638.3473">&#22238;&#25910;&#21518;&#32493;&#20840;&#37096;&#33410;&#28857;&#21040; pending</text><text fill="#000000" font-family="sans-serif" font-size="13" lengthAdjust="spacing" textLength="107.5231" x="631" y="1656.0533">&#36820;&#22238; currentNode</text></g></svg>